<svg width="45" height="45" viewBox="0 0 45 45" fill="none" xmlns="http://www.w3.org/2000/svg">
<rect width="45" height="45" rx="8" fill="#073F58"/>
<rect x="11" y="11" width="24" height="24" stroke="white"/>
<path d="M15 28C15 28.5304 15.2107 29.0391 15.5858 29.4142C15.9609 29.7893 16.4696 30 17 30C17.5304 30 18.0391 29.7893 18.4142 29.4142C18.7893 29.0391 19 28.5304 19 28C19 27.4696 18.7893 26.9609 18.4142 26.5858C18.0391 26.2107 17.5304 26 17 26C16.4696 26 15.9609 26.2107 15.5858 26.5858C15.2107 26.9609 15 27.4696 15 28ZM27 28C27 28.5304 27.2107 29.0391 27.5858 29.4142C27.9609 29.7893 28.4696 30 29 30C29.5304 30 30.0391 29.7893 30.4142 29.4142C30.7893 29.0391 31 28.5304 31 28C31 27.4696 30.7893 26.9609 30.4142 26.5858C30.0391 26.2107 29.5304 26 29 26C28.4696 26 27.9609 26.2107 27.5858 26.5858C27.2107 26.9609 27 27.4696 27 28Z" stroke="white" stroke-linecap="round" stroke-linejoin="round"/>
<path d="M15 28H13V17C13 16.7348 13.1054 16.4804 13.2929 16.2929C13.4804 16.1054 13.7348 16 14 16H28C29.3261 16 30.5979 16.7375 31.5355 18.0503C32.4732 19.363 33 21.1435 33 23V28H31M27 28H19" stroke="white" stroke-linecap="round" stroke-linejoin="round"/>
<path d="M27 16L28.5 23H33M13 21H28M18 16V21M23 16V21" stroke="white" stroke-linecap="round" stroke-linejoin="round"/>
</svg>
