<svg width="36" height="36" viewBox="0 0 36 36" fill="none" xmlns="http://www.w3.org/2000/svg">
<rect width="36" height="36" rx="10" fill="#073F58"/>
<path d="M24.5 26H11.5C10.67 26 10 25.33 10 24.5V12.5C10 11.67 10.67 11 11.5 11H24.5C25.33 11 26 11.67 26 12.5V24.5C26 25.33 25.33 26 24.5 26ZM11.5 12C11.22 12 11 12.22 11 12.5V24.5C11 24.78 11.22 25 11.5 25H24.5C24.78 25 25 24.78 25 24.5V12.5C25 12.22 24.78 12 24.5 12H11.5Z" fill="white"/>
<path d="M14.5 14C14.22 14 14 13.78 14 13.5V10.5C14 10.22 14.22 10 14.5 10C14.78 10 15 10.22 15 10.5V13.5C15 13.78 14.78 14 14.5 14ZM21.5 14C21.22 14 21 13.78 21 13.5V10.5C21 10.22 21.22 10 21.5 10C21.78 10 22 10.22 22 10.5V13.5C22 13.78 21.78 14 21.5 14ZM25.5 16H10.5C10.22 16 10 15.78 10 15.5C10 15.22 10.22 15 10.5 15H25.5C25.78 15 26 15.22 26 15.5C26 15.78 25.78 16 25.5 16Z" fill="white"/>
</svg>
