<svg width="28" height="28" viewBox="0 0 28 28" fill="none" xmlns="http://www.w3.org/2000/svg">
<ellipse cx="14" cy="14.0003" rx="14" ry="14.0003" fill="#F89C32"/>
<path d="M14.7315 18.6146C14.7835 18.5587 14.8463 18.5139 14.9161 18.4828C14.9858 18.4517 15.0612 18.435 15.1375 18.4337C15.2139 18.4323 15.2897 18.4464 15.3606 18.475C15.4314 18.5036 15.4957 18.5462 15.5497 18.6002C15.6037 18.6542 15.6463 18.7185 15.6749 18.7893C15.7035 18.8601 15.7176 18.936 15.7162 19.0124C15.7149 19.0887 15.6982 19.164 15.6671 19.2338C15.636 19.3036 15.5912 19.3664 15.5353 19.4184L12.502 22.4518C12.3953 22.5583 12.2508 22.6181 12.1 22.6181C11.9493 22.6181 11.8048 22.5583 11.6981 22.4518L8.66479 19.4184C8.60891 19.3664 8.56409 19.3036 8.53301 19.2338C8.50192 19.164 8.48521 19.0887 8.48386 19.0124C8.48251 18.936 8.49656 18.8601 8.52516 18.7893C8.55377 18.7185 8.59634 18.6542 8.65035 18.6002C8.70436 18.5462 8.76869 18.5036 8.83951 18.475C8.91033 18.4464 8.98619 18.4323 9.06255 18.4337C9.13892 18.435 9.21423 18.4517 9.284 18.4828C9.35376 18.5139 9.41655 18.5587 9.46862 18.6146L11.5313 20.6773V13.329C11.5313 13.1782 11.5912 13.0335 11.6979 12.9269C11.8045 12.8202 11.9492 12.7603 12.1 12.7603C12.2509 12.7603 12.3955 12.8202 12.5022 12.9269C12.6089 13.0335 12.6688 13.1782 12.6688 13.329V20.6773L14.7315 18.6146Z" fill="white"/>
<path d="M12.4685 9.38515C12.4164 9.44103 12.3536 9.48585 12.2839 9.51694C12.2141 9.54802 12.1388 9.56474 12.0624 9.56608C11.9861 9.56743 11.9102 9.55338 11.8394 9.52478C11.7686 9.49617 11.7042 9.4536 11.6502 9.39959C11.5962 9.34558 11.5536 9.28125 11.525 9.21043C11.4964 9.13961 11.4824 9.06376 11.4837 8.98739C11.4851 8.91102 11.5018 8.83571 11.5329 8.76594C11.564 8.69618 11.6088 8.63339 11.6647 8.58132L14.698 5.54799C14.8046 5.44148 14.9492 5.38165 15.0999 5.38165C15.2506 5.38165 15.3952 5.44148 15.5018 5.54799L18.5352 8.58132C18.591 8.63339 18.6359 8.69618 18.6669 8.76594C18.698 8.83571 18.7147 8.91102 18.7161 8.98739C18.7174 9.06376 18.7034 9.13961 18.6748 9.21043C18.6462 9.28125 18.6036 9.34558 18.5496 9.39959C18.4956 9.4536 18.4313 9.49617 18.3604 9.52478C18.2896 9.55338 18.2138 9.56743 18.1374 9.56608C18.061 9.56474 17.9857 9.54802 17.916 9.51694C17.8462 9.48585 17.7834 9.44103 17.7313 9.38515L15.6687 7.32249V14.6707C15.6687 14.8216 15.6087 14.9662 15.5021 15.0729C15.3954 15.1796 15.2508 15.2395 15.0999 15.2395C14.9491 15.2395 14.8044 15.1796 14.6977 15.0729C14.5911 14.9662 14.5312 14.8216 14.5312 14.6707V7.32249L12.4685 9.38515Z" fill="white"/>
</svg>
