<svg width="36" height="36" viewBox="0 0 36 36" fill="none" xmlns="http://www.w3.org/2000/svg">
<rect width="36" height="36" rx="10" fill="#073F58"/>
<path d="M21.3333 16.3333C21.3333 14.4917 19.8416 13 18 13C16.1583 13 14.6666 14.4917 14.6666 16.3333C14.6666 18.175 16.1583 19.6667 18 19.6667C19.8416 19.6667 21.3333 18.175 21.3333 16.3333ZM16.3333 16.3333C16.3333 15.4167 17.0833 14.6667 18 14.6667C18.9166 14.6667 19.6666 15.4167 19.6666 16.3333C19.6666 17.25 18.9166 18 18 18C17.0833 18 16.3333 17.25 16.3333 16.3333Z" fill="white"/>
<path d="M17.5167 26.175C17.6583 26.275 17.8333 26.3333 18 26.3333C18.1667 26.3333 18.3417 26.2833 18.4833 26.175C18.7333 25.9917 24.6917 21.7 24.6667 16.325C24.6667 12.65 21.675 9.65833 18 9.65833C14.325 9.65833 11.3333 12.65 11.3333 16.325C11.3083 21.6917 17.2667 25.9917 17.5167 26.175ZM18 11.3333C20.7583 11.3333 23 13.575 23 16.3333C23.0167 20.0333 19.3417 23.3583 18 24.45C16.6583 23.3583 12.9833 20.0417 13 16.3333C13 13.575 15.2417 11.3333 18 11.3333Z" fill="white"/>
</svg>
