<svg width="37" height="37" viewBox="0 0 37 37" fill="none" xmlns="http://www.w3.org/2000/svg">
<path d="M36.0455 18.0912C36.0707 8.15017 28.0322 0.0708263 18.0912 0.0456272C8.15017 0.0204282 0.0708263 8.05891 0.0456272 17.9999C0.0228535 26.9842 6.58633 34.4476 15.188 35.8197L15.2199 23.2415L10.6496 23.23L10.6628 18.0269L15.2331 18.0384L15.2431 14.0728C15.2546 9.56159 17.9482 7.07654 22.0598 7.08696C24.0291 7.09195 26.0881 7.44873 26.0881 7.44873L26.0769 11.8784L23.8072 11.8727C21.5711 11.867 20.8702 13.2528 20.8666 14.6763L20.8581 18.0527L25.8502 18.0654L25.039 23.2664L20.8449 23.2558L20.813 35.834C29.4215 34.5055 36.0227 27.0756 36.0455 18.0912Z" fill="#1877F2"/>
<path d="M25.039 23.2664L25.8502 18.0654L20.858 18.0527L20.8666 14.6763C20.8702 13.2526 21.5711 11.867 23.8071 11.8727L26.0768 11.8784L26.0881 7.44874C26.0881 7.44874 24.0291 7.09195 22.0596 7.08696C17.9482 7.07654 15.2545 9.5616 15.2431 14.0728L15.2331 18.0384L10.6628 18.0269L10.6496 23.23L15.2199 23.2416L15.188 35.8197C16.118 35.9679 17.0582 36.0434 17.9999 36.0455C18.9417 36.0481 19.8822 35.9774 20.813 35.834L20.8448 23.2558L25.039 23.2664Z" fill="white"/>
</svg>
