<svg width="35" height="35" viewBox="0 0 35 35" fill="none" xmlns="http://www.w3.org/2000/svg">
<path d="M16.625 3.8336C17.1226 3.38516 17.8773 3.38516 18.375 3.8336L31.0625 15.2086C31.6039 15.6898 31.6476 16.5211 31.1609 17.0625C30.6742 17.6039 29.8484 17.6477 29.307 17.1609L28.8695 16.7672V27.9945C28.8695 29.925 27.3 31.4945 25.3695 31.4945H9.6195C7.68903 31.4945 6.1195 29.925 6.1195 27.9945V16.7672L5.682 17.1609C5.1406 17.6422 4.31481 17.5984 3.82809 17.0625C3.34138 16.5266 3.3906 15.6953 3.92653 15.2086L16.625 3.8336ZM17.5 6.57344L8.74997 14.4211V28C8.74997 28.4813 9.14372 28.875 9.62497 28.875H12.25V23.1875C12.25 21.0109 14.0109 19.25 16.1875 19.25H18.8125C20.989 19.25 22.75 21.0109 22.75 23.1875V28.875H25.375C25.8562 28.875 26.25 28.4813 26.25 28V14.4211L17.5 6.57891V6.57344ZM14.875 28.875H20.125V23.1875C20.125 22.4602 19.5398 21.875 18.8125 21.875H16.1875C15.4601 21.875 14.875 22.4602 14.875 23.1875V28.875Z" fill="currentColor"/>
</svg>
