<svg width="30" height="30" viewBox="0 0 30 30" fill="none" xmlns="http://www.w3.org/2000/svg">
<rect width="30" height="30" rx="5" fill="white"/>
<path d="M18.3333 13.3333C18.3333 11.4917 16.8416 10 15 10C13.1583 10 11.6666 11.4917 11.6666 13.3333C11.6666 15.175 13.1583 16.6667 15 16.6667C16.8416 16.6667 18.3333 15.175 18.3333 13.3333ZM13.3333 13.3333C13.3333 12.4167 14.0833 11.6667 15 11.6667C15.9166 11.6667 16.6666 12.4167 16.6666 13.3333C16.6666 14.25 15.9166 15 15 15C14.0833 15 13.3333 14.25 13.3333 13.3333Z" fill="#0EA5E9"/>
<path d="M14.5167 23.175C14.6583 23.275 14.8333 23.3333 15 23.3333C15.1667 23.3333 15.3417 23.2833 15.4833 23.175C15.7333 22.9917 21.6917 18.7 21.6667 13.325C21.6667 9.64999 18.675 6.65833 15 6.65833C11.325 6.65833 8.33333 9.64999 8.33333 13.325C8.30833 18.6917 14.2667 22.9917 14.5167 23.175ZM15 8.33333C17.7583 8.33333 20 10.575 20 13.3333C20.0167 17.0333 16.3417 20.3583 15 21.45C13.6583 20.3583 9.98333 17.0417 10 13.3333C10 10.575 12.2417 8.33333 15 8.33333Z" fill="#0EA5E9"/>
</svg>
