<svg width="36" height="36" viewBox="0 0 36 36" fill="none" xmlns="http://www.w3.org/2000/svg">
<rect width="36" height="36" rx="8" fill="#0EA5E9" fill-opacity="0.4"/>
<path fill-rule="evenodd" clip-rule="evenodd" d="M18.247 26.969C19.3971 25.9254 20.4615 24.7911 21.43 23.577C23.47 21.014 24.711 18.487 24.795 16.24C24.8282 15.3268 24.6771 14.4163 24.3505 13.5628C24.024 12.7093 23.5288 11.9304 22.8945 11.2726C22.2602 10.6148 21.4998 10.0916 20.6588 9.7342C19.8177 9.37684 18.9133 9.19265 17.9995 9.19265C17.0857 9.19265 16.1813 9.37684 15.3402 9.7342C14.4992 10.0916 13.7388 10.6148 13.1045 11.2726C12.4702 11.9304 11.975 12.7093 11.6485 13.5628C11.3219 14.4163 11.1708 15.3268 11.204 16.24C11.289 18.487 12.531 21.014 14.57 23.577C15.5385 24.7911 16.6029 25.9254 17.753 26.969C17.8637 27.069 17.946 27.1417 18 27.187L18.247 26.969ZM17.262 28.134C17.262 28.134 10 22.018 10 16C10 13.8783 10.8429 11.8434 12.3431 10.3431C13.8434 8.84285 15.8783 8 18 8C20.1217 8 22.1566 8.84285 23.6569 10.3431C25.1571 11.8434 26 13.8783 26 16C26 22.018 18.738 28.134 18.738 28.134C18.334 28.506 17.669 28.502 17.262 28.134ZM18 18.8C18.7426 18.8 19.4548 18.505 19.9799 17.9799C20.505 17.4548 20.8 16.7426 20.8 16C20.8 15.2574 20.505 14.5452 19.9799 14.0201C19.4548 13.495 18.7426 13.2 18 13.2C17.2574 13.2 16.5452 13.495 16.0201 14.0201C15.495 14.5452 15.2 15.2574 15.2 16C15.2 16.7426 15.495 17.4548 16.0201 17.9799C16.5452 18.505 17.2574 18.8 18 18.8ZM18 20C16.9391 20 15.9217 19.5786 15.1716 18.8284C14.4214 18.0783 14 17.0609 14 16C14 14.9391 14.4214 13.9217 15.1716 13.1716C15.9217 12.4214 16.9391 12 18 12C19.0609 12 20.0783 12.4214 20.8284 13.1716C21.5786 13.9217 22 14.9391 22 16C22 17.0609 21.5786 18.0783 20.8284 18.8284C20.0783 19.5786 19.0609 20 18 20Z" fill="#1877F2"/>
</svg>
