<svg width="35" height="35" viewBox="0 0 35 35" fill="none" xmlns="http://www.w3.org/2000/svg">
<circle cx="17.5" cy="17.5" r="17.5" fill="#D9D9D9" fill-opacity="0.5"/>
<path d="M10.0226 19.8083C9.84506 20.97 10.6376 21.7758 11.6076 22.1775C15.3267 23.7191 20.5017 23.7191 24.2209 22.1775C25.1909 21.7758 25.9834 20.9691 25.8059 19.8083C25.6976 19.0941 25.1584 18.5 24.7592 17.9191C24.2367 17.1491 24.1851 16.31 24.1842 15.4166C24.1851 11.965 21.3784 9.16663 17.9142 9.16663C14.4501 9.16663 11.6434 11.965 11.6434 15.4166C11.6434 16.31 11.5917 17.15 11.0684 17.9191C10.6701 18.5 10.1317 19.0941 10.0226 19.8083Z" stroke="white" stroke-width="1.5" stroke-linecap="round" stroke-linejoin="round"/>
<path d="M14.5815 23.3336C14.9632 24.7711 16.3115 25.8336 17.9149 25.8336C19.519 25.8336 20.8657 24.7711 21.2482 23.3336" stroke="white" stroke-width="1.5" stroke-linecap="round" stroke-linejoin="round"/>
</svg>
