<svg width="35" height="35" viewBox="0 0 35 35" fill="none" xmlns="http://www.w3.org/2000/svg">
<path d="M29.1667 32.0833H26.25V29.1667C26.25 26.7503 24.2914 24.7917 21.875 24.7917H13.125C10.7088 24.7917 8.75004 26.7503 8.75004 29.1667V32.0833H5.83337V29.1667C5.83337 25.1396 9.09797 21.875 13.125 21.875H21.875C25.9021 21.875 29.1667 25.1396 29.1667 29.1667V32.0833ZM17.5 18.9583C12.6675 18.9583 8.75004 15.0408 8.75004 10.2083C8.75004 5.37583 12.6675 1.45833 17.5 1.45833C22.3325 1.45833 26.25 5.37583 26.25 10.2083C26.25 15.0408 22.3325 18.9583 17.5 18.9583ZM17.5 16.0417C20.7216 16.0417 23.3334 13.43 23.3334 10.2083C23.3334 6.98667 20.7216 4.37499 17.5 4.37499C14.2784 4.37499 11.6667 6.98667 11.6667 10.2083C11.6667 13.43 14.2784 16.0417 17.5 16.0417Z" fill="currentColor"/>
</svg>
