<svg width="35" height="35" viewBox="0 0 35 35" fill="none" xmlns="http://www.w3.org/2000/svg">
<path d="M29.1666 32.0833H26.2499V29.1667C26.2499 26.7504 24.2912 24.7917 21.8749 24.7917H13.1249C10.7087 24.7917 8.74992 26.7504 8.74992 29.1667V32.0833H5.83325V29.1667C5.83325 25.1396 9.09785 21.875 13.1249 21.875H21.8749C25.902 21.875 29.1666 25.1396 29.1666 29.1667V32.0833ZM17.4999 18.9583C12.6674 18.9583 8.74992 15.0408 8.74992 10.2083C8.74992 5.37584 12.6674 1.45834 17.4999 1.45834C22.3324 1.45834 26.2499 5.37584 26.2499 10.2083C26.2499 15.0408 22.3324 18.9583 17.4999 18.9583ZM17.4999 16.0417C20.7215 16.0417 23.3333 13.43 23.3333 10.2083C23.3333 6.98667 20.7215 4.375 17.4999 4.375C14.2783 4.375 11.6666 6.98667 11.6666 10.2083C11.6666 13.43 14.2783 16.0417 17.4999 16.0417Z" fill="currentColor"/>
</svg>
