<svg width="35" height="35" viewBox="0 0 35 35" fill="none" xmlns="http://www.w3.org/2000/svg">
<path fill-rule="evenodd" clip-rule="evenodd" d="M23.8072 21.7277L31.6531 29.5735C31.9288 29.8495 32.0837 30.2237 32.0836 30.6138C32.0834 31.004 31.9283 31.3781 31.6523 31.6539C31.3764 31.9296 31.0022 32.0845 30.612 32.0843C30.2219 32.0842 29.8478 31.9291 29.572 31.6531L21.7262 23.8073C19.3808 25.6239 16.4314 26.4788 13.478 26.198C10.5247 25.9172 7.78924 24.5219 5.82815 22.2959C3.86706 20.0699 2.82764 17.1804 2.92136 14.2152C3.01507 11.25 4.23487 8.43188 6.33262 6.33413C8.43037 4.23638 11.2485 3.01658 14.2137 2.92287C17.1788 2.82915 20.0684 3.86857 22.2944 5.82966C24.5204 7.79075 25.9157 10.5262 26.1965 13.4796C26.4773 16.4329 25.6224 19.3823 23.8058 21.7277M14.5833 23.3333C16.9039 23.3333 19.1295 22.4115 20.7705 20.7705C22.4114 19.1296 23.3333 16.904 23.3333 14.5833C23.3333 12.2627 22.4114 10.0371 20.7705 8.39615C19.1295 6.7552 16.9039 5.83333 14.5833 5.83333C12.2626 5.83333 10.037 6.7552 8.3961 8.39615C6.75515 10.0371 5.83328 12.2627 5.83328 14.5833C5.83328 16.904 6.75515 19.1296 8.3961 20.7705C10.037 22.4115 12.2626 23.3333 14.5833 23.3333Z" fill="currentColor"/>
</svg>
