<svg width="92" height="92" viewBox="0 0 92 92" fill="none" xmlns="http://www.w3.org/2000/svg">
<path d="M61.3333 38.3333C61.3333 29.8617 54.4717 23 46 23C37.5283 23 30.6667 29.8617 30.6667 38.3333C30.6667 46.805 37.5283 53.6667 46 53.6667C54.4717 53.6667 61.3333 46.805 61.3333 38.3333ZM38.3333 38.3333C38.3333 34.1167 41.7833 30.6667 46 30.6667C50.2167 30.6667 53.6667 34.1167 53.6667 38.3333C53.6667 42.55 50.2167 46 46 46C41.7833 46 38.3333 42.55 38.3333 38.3333Z" fill="#0EA5E9"/>
<path d="M43.7767 83.605C44.4283 84.065 45.2333 84.3333 46 84.3333C46.7667 84.3333 47.5717 84.1033 48.2233 83.605C49.3733 82.7617 76.7817 63.02 76.6667 38.295C76.6667 21.39 62.905 7.62833 46 7.62833C29.095 7.62833 15.3333 21.39 15.3333 38.295C15.2183 62.9817 42.6267 82.7617 43.7767 83.605ZM46 15.3333C58.6883 15.3333 69 25.645 69 38.3333C69.0767 55.3533 52.1717 70.6483 46 75.67C39.8283 70.6483 22.9233 55.3917 23 38.3333C23 25.645 33.3117 15.3333 46 15.3333Z" fill="#0EA5E9"/>
</svg>
