<svg width="24" height="24" viewBox="0 0 24 24" fill="none" xmlns="http://www.w3.org/2000/svg">
<path d="M3 8.5C3 7.102 3 6.403 3.228 5.852C3.37877 5.48791 3.59979 5.15709 3.87844 4.87844C4.15709 4.59979 4.48791 4.37877 4.852 4.228C5.403 4 6.102 4 7.5 4H16.5C17.898 4 18.597 4 19.148 4.228C19.5121 4.37877 19.8429 4.59979 20.1216 4.87844C20.4002 5.15709 20.6212 5.48791 20.772 5.852C21 6.403 21 7.102 21 8.5V9.25C21 9.44891 20.921 9.63968 20.7803 9.78033C20.6397 9.92098 20.4489 10 20.25 10H20C19.4696 10 18.9609 10.2107 18.5858 10.5858C18.2107 10.9609 18 11.4696 18 12C18 12.5304 18.2107 13.0391 18.5858 13.4142C18.9609 13.7893 19.4696 14 20 14H20.25C20.4489 14 20.6397 14.079 20.7803 14.2197C20.921 14.3603 21 14.5511 21 14.75V15.5C21 16.898 21 17.597 20.772 18.148C20.6212 18.5121 20.4002 18.8429 20.1216 19.1216C19.8429 19.4002 19.5121 19.6212 19.148 19.772C18.597 20 17.898 20 16.5 20H7.5C6.102 20 5.403 20 4.852 19.772C4.48791 19.6212 4.15709 19.4002 3.87844 19.1216C3.59979 18.8429 3.37877 18.5121 3.228 18.148C3 17.597 3 16.898 3 15.5V14.75C3 14.5511 3.07902 14.3603 3.21967 14.2197C3.36032 14.079 3.55109 14 3.75 14H4C4.53043 14 5.03914 13.7893 5.41421 13.4142C5.78929 13.0391 6 12.5304 6 12C6 11.4696 5.78929 10.9609 5.41421 10.5858C5.03914 10.2107 4.53043 10 4 10H3.75C3.55109 10 3.36032 9.92098 3.21967 9.78033C3.07902 9.63968 3 9.44891 3 9.25V8.5Z" stroke="black"/>
<path d="M11.557 10.689C11.725 10.254 11.809 10.036 11.945 10.006C11.9813 9.99922 12.0186 9.99922 12.055 10.006C12.191 10.036 12.275 10.254 12.443 10.688C12.539 10.936 12.587 11.06 12.676 11.144C12.7008 11.1677 12.7279 11.1888 12.757 11.207C12.861 11.271 12.99 11.283 13.248 11.307C13.685 11.347 13.904 11.368 13.97 11.497C13.9836 11.5241 13.9931 11.5531 13.998 11.583C14.02 11.728 13.86 11.88 13.538 12.183L13.449 12.267C13.299 12.409 13.224 12.48 13.18 12.568C13.1547 12.6218 13.1375 12.6791 13.129 12.738C13.115 12.836 13.137 12.938 13.181 13.144L13.197 13.218C13.276 13.587 13.315 13.771 13.266 13.862C13.245 13.9017 13.214 13.9353 13.1762 13.9595C13.1383 13.9837 13.0948 13.9976 13.05 14C12.95 14.005 12.809 13.886 12.526 13.647C12.341 13.489 12.248 13.411 12.144 13.38C12.0501 13.3518 11.9499 13.3518 11.856 13.38C11.752 13.41 11.659 13.49 11.473 13.647C11.191 13.886 11.05 14.005 10.95 14C10.9051 13.9976 10.8617 13.9837 10.8238 13.9595C10.7859 13.9353 10.755 13.9017 10.734 13.862C10.685 13.772 10.724 13.587 10.804 13.218L10.819 13.144C10.863 12.939 10.885 12.836 10.871 12.738C10.8625 12.6791 10.8453 12.6218 10.82 12.568C10.776 12.48 10.701 12.408 10.551 12.268L10.461 12.183C10.141 11.88 9.97999 11.728 10.002 11.583C10.0069 11.5531 10.0164 11.5241 10.03 11.497C10.097 11.368 10.315 11.347 10.752 11.307C11.01 11.283 11.139 11.271 11.242 11.207C11.2714 11.1889 11.2989 11.1678 11.324 11.144C11.414 11.06 11.461 10.936 11.557 10.688V10.689Z" fill="black" stroke="black"/>
</svg>
