<svg width="42" height="42" viewBox="0 0 42 42" fill="none" xmlns="http://www.w3.org/2000/svg">
<rect width="42" height="42" rx="8" fill="#0EA5E9" fill-opacity="0.4"/>
<path d="M21 34.125C18.4041 34.125 15.8665 33.3552 13.7081 31.913C11.5498 30.4708 9.86749 28.421 8.87409 26.0227C7.88069 23.6244 7.62077 20.9854 8.1272 18.4394C8.63363 15.8934 9.88366 13.5548 11.7192 11.7192C13.5548 9.88366 15.8934 8.63362 18.4394 8.12719C20.9854 7.62076 23.6244 7.88068 26.0227 8.87408C28.421 9.86748 30.4708 11.5497 31.913 13.7081C33.3552 15.8665 34.125 18.4041 34.125 21C34.125 24.481 32.7422 27.8194 30.2808 30.2808C27.8194 32.7422 24.481 34.125 21 34.125ZM21 9.75C18.775 9.75 16.5999 10.4098 14.7498 11.646C12.8998 12.8821 11.4578 14.6391 10.6064 16.6948C9.75488 18.7505 9.53209 21.0125 9.96617 23.1948C10.4003 25.377 11.4717 27.3816 13.0451 28.9549C14.6184 30.5283 16.623 31.5997 18.8052 32.0338C20.9875 32.4679 23.2495 32.2451 25.3052 31.3936C27.3609 30.5422 29.1179 29.1002 30.354 27.2502C31.5902 25.4001 32.25 23.225 32.25 21C32.25 18.0163 31.0647 15.1548 28.955 13.045C26.8452 10.9353 23.9837 9.75 21 9.75Z" fill="#1877F2"/>
<path d="M25.3031 26.625L20.0625 21.3844V12.5625H21.9375V20.6062L26.625 25.3031L25.3031 26.625Z" fill="#1877F2"/>
</svg>
