<svg width="36" height="36" viewBox="0 0 36 36" fill="none" xmlns="http://www.w3.org/2000/svg">
<rect width="36" height="36" rx="8" fill="#0EA5E9" fill-opacity="0.4"/>
<path d="M18 28.5C15.9233 28.5 13.8932 27.8842 12.1665 26.7304C10.4398 25.5767 9.09399 23.9368 8.29927 22.0182C7.50455 20.0996 7.29661 17.9884 7.70176 15.9516C8.1069 13.9148 9.10693 12.0438 10.5754 10.5754C12.0438 9.10693 13.9148 8.1069 15.9516 7.70176C17.9884 7.29661 20.0996 7.50455 22.0182 8.29927C23.9368 9.09399 25.5767 10.4398 26.7304 12.1665C27.8842 13.8932 28.5 15.9233 28.5 18C28.5 20.7848 27.3938 23.4555 25.4246 25.4246C23.4555 27.3938 20.7848 28.5 18 28.5ZM18 9C16.22 9 14.4799 9.52784 12.9999 10.5168C11.5198 11.5057 10.3663 12.9113 9.68509 14.5559C9.0039 16.2004 8.82567 18.01 9.17294 19.7558C9.5202 21.5016 10.3774 23.1053 11.636 24.364C12.8947 25.6226 14.4984 26.4798 16.2442 26.8271C17.99 27.1743 19.7996 26.9961 21.4442 26.3149C23.0887 25.6337 24.4943 24.4802 25.4832 23.0001C26.4722 21.5201 27 19.78 27 18C27 15.6131 26.0518 13.3239 24.364 11.636C22.6761 9.94821 20.387 9 18 9Z" fill="#1877F2"/>
<path d="M21.4425 22.5L17.25 18.3075V11.25H18.75V17.685L22.5 21.4425L21.4425 22.5Z" fill="#1877F2"/>
</svg>
