<svg width="35" height="35" viewBox="0 0 35 35" fill="none" xmlns="http://www.w3.org/2000/svg">
<path d="M7.29175 14.5833C7.29175 14.5833 11.6667 11.9437 11.6667 7.29166C11.6667 4.88541 9.698 2.91666 7.29175 2.91666C4.8855 2.91666 2.91675 4.88541 2.91675 7.29166C2.91675 11.9437 7.29175 14.5833 7.29175 14.5833ZM7.29175 5.10416C8.50216 5.10416 9.47925 6.08125 9.47925 7.29166C9.47925 8.50208 8.50216 9.47916 7.29175 9.47916C6.08133 9.47916 5.10425 8.50208 5.10425 7.29166C5.10425 6.08125 6.08133 5.10416 7.29175 5.10416ZM27.7084 20.4167C25.3022 20.4167 23.3334 22.3854 23.3334 24.7917C23.3334 29.4437 27.7084 32.0833 27.7084 32.0833C27.7084 32.0833 32.0834 29.4437 32.0834 24.7917C32.0834 22.3854 30.1147 20.4167 27.7084 20.4167ZM27.7084 26.9792C26.498 26.9792 25.5209 26.0021 25.5209 24.7917C25.5209 23.5812 26.498 22.6042 27.7084 22.6042C28.9188 22.6042 29.8959 23.5812 29.8959 24.7917C29.8959 26.0021 28.9188 26.9792 27.7084 26.9792Z" fill="currentColor"/>
<path d="M5.83341 25.5208C5.83341 24.5539 6.21753 23.6266 6.90125 22.9428C7.58498 22.2591 8.51231 21.875 9.47925 21.875H19.6876C22.5022 21.875 24.7917 19.5854 24.7917 16.7708C24.7917 13.9562 22.5022 11.6667 19.6876 11.6667H11.6667V14.5833H19.6876C20.898 14.5833 21.8751 15.5604 21.8751 16.7708C21.8751 17.9812 20.898 18.9583 19.6876 18.9583H9.47925C5.86258 18.9583 2.91675 21.9042 2.91675 25.5208C2.91675 29.1375 5.86258 32.0833 9.47925 32.0833H23.3334V29.1667H9.47925C8.51231 29.1667 7.58498 28.7825 6.90125 28.0988C6.21753 27.4151 5.83341 26.4878 5.83341 25.5208Z" fill="currentColor"/>
</svg>
